<?xml version="1.0" encoding="utf-8"?>
<!-- Generator: Adobe Illustrator 16.0.0, SVG Export Plug-In . SVG Version: 6.00 Build 0)  -->
<!DOCTYPE svg PUBLIC "-//W3C//DTD SVG 1.1//EN" "http://www.w3.org/Graphics/SVG/1.1/DTD/svg11.dtd">
<svg version="1.1" id="Layer_1" xmlns="http://www.w3.org/2000/svg" xmlns:xlink="http://www.w3.org/1999/xlink" x="0px" y="0px"
	 width="1280px" height="800px" viewBox="0 0 1280 800" enable-background="new 0 0 1280 800" xml:space="preserve">
<g id="Lion.psd">
	<defs>
		<rect id="SVGID_1_" y="108" width="934" height="692"/>
	</defs>
	<clipPath id="SVGID_2_">
		<use xlink:href="#SVGID_1_"  overflow="visible"/>
	</clipPath>
	<g id="Color_Fill_1" clip-path="url(#SVGID_2_)">
		<g>
			<path fill-rule="evenodd" clip-rule="evenodd" fill="#D19347" d="M874,404c-11.666-9.333-23.335-18.667-35-28
				c-10.904-12.477-10.624-33.564,4-43c37.055,6.577,33.619,19.548,30,49l2,1c23.328-8.105,42.43-36.385,40-68
				c-0.667-10.666-1.333-21.334-2-32c1.988-6.535,7.49-9.695,8-20c-14.295-21.139-49.14-20.169-73-12
				c8.707-7.746,12.063-7.628,23-10c16.5-60.974-37.499-106.275-77-119c-23.998-0.667-48.003-1.333-72-2
				c-11.332,1.667-22.668,3.333-34,5c-39.286,15.684-69.33,43.601-89,79c-5.674,10.211-24.843,55.944-4,60
				c5.347-8.609,11.18-12.981,19-19h1c-15.715,31.405-50.365,57.475-36,106c3.444,11.634,4.531,18.038,12,25
				c5.013-4.523,1.4-10.413,6-16c9.771-11.87,14.028-20.711,26-28c-4.333,6.333-8.667,12.667-13,19c-2,10.666-4,21.334-6,32
				c-5.428,14.439-23.979,31.76-37,41c-47.801,33.922-121.514,33.482-188,42c-27.382,3.508-62.936-0.996-90,8
				c-28.797,9.572-40.137,33.691-62,49c-24.535,17.181-73.566,18.881-104,4c-43.719-21.377-51.652-84.92-74-125
				c21.933-36.183-22.003-74.198-46-87c-0.667,1-1.333,2-2,3c23.93,32.099-15.027,80.058,38,92c37.279,59.434,14.676,107.357,96,135
				c14.329,4.87,33.596,12.861,53,9c14.137-2.813,27.417-10.292,40-17c11.326,26.044-13.979,48.452-30,53
				c-20.59,38.705-19.135,143.241-9,190c14.871,10.474,47.668,8.366,67,6c13.487-18.562,5.622-49.642-22-49v-37
				c4.243-25.834,14.633-34.934,27-51c20.456-0.012,35.632,2.508,57-2c14.665-4,29.334-8,44-12c5.694,34.91,5.634,86.329,1,124
				c-1.5,12.197-2.938,28.018-1,38c12.441,1.308,46.02,1.719,62,3c8.136-22.617,3.272-47.641-20-51c0.318-17.407,0.455-39.8,7-53
				c4.476-9.026,16.853-12.388,24-19c24.855-22.994,71.796-37.353,87-69c28.024,4.927,48.091,28.098,80,29
				c3.479,10.79-19.078,37.202-26,47c-20.376,28.845-45.712,60.555-45,109c1.666,1.666,3.334,3.333,5,5
				c16.494,3.263,32.441,1.834,50-1c6.594-10.223,5.856-26.796-6-32c16.433-39.981,52.438-62.96,78-94c5.999-7.666,12-15.334,18-23
				c1.666-5,3.333-10.001,5-15c10.666-5.999,21.334-12.001,32-18c-6,21.664-12.001,43.336-18,65c-8.333,14.998-16.668,30.002-25,45
				c-4.333,4.999-8.667,10-13,15c0.667,10.332,1.333,20.668,2,31c-0.834,6.94-6.342,16.264-4,23c6.034,8.966,35.467,3.738,49,3
				c1-1.667,2-3.334,3-5c2.464-11.033-1.605-21.641-11-24c-12.644-24.639,29.344-51.426,40-65c15.708-20.011,28.785-51.671,49-67
				c45.36-34.397,108.854-48.918,126-107C926.076,477.928,900.096,424.527,874,404z M31,394c-17.276-8.236-12.576-32.297-12-56
				c7.408,5.72,13.462,14.445,18,23C47.516,370.928,46.538,390.1,31,394z M507,606l-17,17c-13.365,9.618-21.959,9.518-36,16
				c-10.666,7.999-21.334,16.001-32,24v-7c-1-0.667-2-1.334-3-2c-12.425,9.468-35.818,75.827-26,99c3.853,9.092,37.852,5.51,25,37
				c-0.444,0.694-36.917-0.904-47-1c2.611-51.204,5.836-106.153,1-159c14.577-4.269,22.366-13.512,34-19
				c23.979-11.313,68.824-17.489,101-8V606z M664,641c-10.332,11.999-20.668,24.001-31,36c-22.324,25.626-65.843,48.076-65,92
				c3.666,2,7.334,4,11,6c3.179,3.782,2.816,8.481,2,14c-9.557-3.886-26.591-1.246-38,0c0.198-70.534,55.129-94.94,71-149
				c12.156,1.755,35.023,4.143,47-1h3V641z M779,612c-16.776,38.082-40.312,70.777-67,101c-11.514,13.038-32.657,26.134-25,52
				c-3.666,1-7.334,2-11,3c-0.333,1-0.667,2-1,3c4.268,4.655,10.817,3.891,18,4c2.429,3.542,4.098,5.52,5,11
				c-10.999,0.333-22.001,0.667-33,1c2.991-14.037,3.318-23.839,3-41c27.953-24.685,41.409-68.822,54-107
				c3.142-9.526-0.112-26.844,3-35c3.536-9.268,11.776-17.748,16-29c-0.333-0.667-0.667-1.333-1-2c-5.333,5.999-10.667,12.001-16,18
				c-22.398,20.188-51.229,27.502-88,34c-38.002,6.715-70.92-18.794-97-28c-38.998-13.767-85.083-9.379-120,4
				c10.689-13.881,18.299-22.781,24-43v-9h-1c-6.077,3.642-6.783,13.572-11,19c-13.79,17.745-37.949,32.837-58,45
				c-23.118,14.023-53.778,20.516-82,26c-8.127,1.579-17.084-1.942-24,0c-32.555,9.143-53.784,61.209-42,103
				c7.384,4.039,17.693,5.592,24,10c1.906,6.289,4.952,15.378,1,22c-3.774,4.996-38.13,1.398-51,1c-1.188-27.413-11.983-54.381-7-84
				c4.666-30.33,9.333-60.67,14-91c24.815-12.056,45.313-37.297,32-72c55-76.155,130.214-34.271,225-56
				c44.141-10.119,64.902-17.672,102-38c15.162-8.309,33.935-21.008,41-37c0.666-0.333,1.334-0.667,2-1
				c38.705,100.552,150.965,76.005,185,167C798.539,577.809,783.542,601.688,779,612z M896,507c-10.929,48.695-42.559,70.619-76,93
				c-7.832,5.241-23.631,10.47-28,18h-1c6.37-17.755,15.482-34.96,21-54c4.624-15.956-33.591-58.854-43-64
				c-52.901-28.93-185.168-59.936-145-151c8.205-18.601,21.918-24.167,29-37c3.164-4.028,0.712-6.994-4-9
				c-22.221,9.125-33.512,22.583-45,35c-2.571,2.224-0.002,0.141-4,0c-2.333,6-4.667,12-7,18c-12.203-11.076-2.816-39.95,2-52
				c15.943-39.888,35.381-58.089,66-80c5.353-3.83,6.245-8.588,14-11v-5c-33.465-0.285-65.342,14.997-76,37
				c-0.666,0.333-1.334,0.667-2,1c18.111-44.829,34.097-71.537,72-96c34.349-22.168,134.068-15.969,159,4
				c22.271,17.837,27.321,43.473,35,74c-1.333,1-2.667,2-4,3c-24.141-0.787-48.722,6.581-66,18v7c16.388-2.458,29.219-6.541,37,10
				c42.05-12.784,67.219-17.886,62,34l2,1c3-1.333,6-2.667,9-4h1c3.216,25.266-5.448,52.231-7,56s-6.334,11.333-10,15
				c-8.83-32.47-13.038-47.282-57-42c-4.119,10.344-17.895,27.601-12,44c4.057,11.288,19.26,17.759,28,25
				C871.133,415.821,907.729,454.74,896,507z M25,353c1.76,7.953,6.488,20.432,12,24c0.658-8.841,1.084-7.878,0-16
				c-3.377-3.898-10.788-12.664-13-15C23.719,346.931,24.255,352.051,25,353z M718,235c-7.199,4.824-22.769,7.76-31,8
				c2.469,16.617,20.741,26.335,12,55c19.822-3.833,10.362-34.641,7-48c9.595-0.315,14.881-3.071,18-10c-1.575-2.89-1.655-2.924-2-5
				H718z"/>
		</g>
	</g>
</g>
</svg>
