<?xml version="1.0" encoding="iso-8859-1"?>
<!-- Generator: Adobe Illustrator 16.0.0, SVG Export Plug-In . SVG Version: 6.00 Build 0)  -->
<!DOCTYPE svg PUBLIC "-//W3C//DTD SVG 1.1//EN" "http://www.w3.org/Graphics/SVG/1.1/DTD/svg11.dtd">
<svg version="1.1" xmlns="http://www.w3.org/2000/svg" xmlns:xlink="http://www.w3.org/1999/xlink" x="0px" y="0px" width="679.5px"
	 height="565.5px" viewBox="0 0 679.5 565.5" style="enable-background:new 0 0 679.5 565.5;" xml:space="preserve">
<g id="Layer_1">
	<path style="fill-rule:evenodd;clip-rule:evenodd;fill:#D19346;" d="M500.25,6c74.515-0.887,59.975,55.92,100.5,84
		c15.701,10.879,59.863,31.741,69,45c10.92,15.848-7.715,30.256-11.25,39c-1-0.25-2-0.5-3-0.75c0-3.25,0-6.5,0-9.75
		c-0.75,0.5-1.5,1-2.25,1.5c-5.072,11.771-22.514,28.382-39,28.5c0-0.75,0-1.5,0-2.25c2.628-2.64,3.757-1.718,4.5-6.75
		c-0.25-0.25-0.5-0.5-0.75-0.75c-2.89-6.38-11.487-10.887-20.25-11.25c-7.314,2.836-13.294,7.307-14.25,16.5
		c5.277,6.65,17.247,20.872,31.5,15c5.356-2.207,3.543-6.496,10.5-6c-3.16,26.317-19.237,47.795-39.75,57
		c-11.118-15.303-8.303-31.923-35.25-33c0.5,1,1,2,1.5,3c6.979,16.765,16.257,29.896,20.25,52.5
		c3.188,18.049-5.475,43.84,0.75,62.25c2.5,3.5,5,7,7.5,10.5c-0.5,0.5-1,1-1.5,1.5c-16.854-8.472-27.696-31.978-39-36.75
		c1.027,41.494-12.984,66.594-35.25,84.75c-5.004,4.081-9.113,10.926-18,9c0-1.25,0-2.5,0-3.75c9.826-7.083,17.255-24.054,15-40.5
		c-0.25,0-0.5,0-0.75,0s-0.5,0-0.75,0c-6.62,28.085-48.574,72.694-71.25,86.25c-1-0.5-2-1-3-1.5
		c2.757-14.344,16.559-43.073,9.75-60.75c-0.75,0.5-1.5,1-2.25,1.5c0.392,26.515-22.886,75.55-36,90.75
		c3.176,8.008,5.275,16.313,8.25,25.5c0.25,0,0.5,0,0.75,0c31.438-10.895,72.644,25.862,53.25,56.25c-0.25,0-0.5,0-0.75,0
		c-29.898-1.653-66.085,2.336-93.75-2.25c-7.351-12.479-14.779-53.926-27-59.25c0.38-8.51,3.676-9.97,5.25-15.75
		c6.502-23.875-1.338-48.875-15.75-58.5c-45.508,12.614-69.674-34.886-94.5-49.5c-10.447-6.15-36.201-15.576-50.25-6
		c4.587,41.189-37.337,81.233-66,93c-12.028,4.938-34.115,4.509-45,9.75c-10.865,5.232-19.138,28.765-17.25,44.25
		c30.082-2.284,50.575,11.564,44.25,44.25c-15.198-2.344-85.558,6.48-92.25-3c-4.669-8.52-0.819-32.176,0.75-42
		c1.25-20.748,2.5-41.502,3.75-62.25c5.092-16.647,26.172-25.283,34.5-39.75c11.201-19.458,8.085-51.189,16.5-73.5
		c13.581-36.01,42.337-46.266,66.75-70.5c12.184-12.094,21.849-28.28,39-35.25c17.856-7.257,41.953-11.283,66.75-7.5
		c11.499,0.75,23.001,1.5,34.5,2.25c13.749-2.25,27.501-4.5,41.25-6.75c7.999-4.5,16.001-9,24-13.5c0-0.25,0-0.5,0-0.75
		c-27.329,1.532-56.008-1.587-72-15.75c0-0.25,0-0.5,0-0.75c4.771-5.226,12.963-7.057,17.25-12.75
		c14.894-19.777,28.748-41.634,50.25-54.75c14.335-8.744,40.601-10.1,52.5-21.75c0-0.25,0-0.5,0-0.75
		c-14.683-1.432-28.927-2.024-42.75,0c-0.25-0.25-0.5-0.5-0.75-0.75c0.684-2.738-0.028-1.534,1.5-3
		c6.076-5.249,13.601-8.239,19.5-13.5c14.474-12.907,24.025-31.061,44.25-38.25c13.412-4.767,47.697,4.576,61.5-4.5
		c0-0.25,0-0.5,0-0.75c-18.873-0.632-44.278-4.965-56.25-15c0-0.25,0-0.5,0-0.75c1.25-0.75,2.5-1.5,3.75-2.25
		c20.115,5.755,39.374-8.897,53.25-13.5C477.749,9.5,489.001,7.75,500.25,6z"/>
	<path style="fill-rule:evenodd;clip-rule:evenodd;fill:#D19346;" d="M166.833,89.167c10.376-16.087,54.587,3.82,56.058-38.29
		c3.235,0.156,3.62,0.197,5.25,1.5c-0.75,6.499-1.5,13-2.25,19.5c0.284,23.429-14.811,50.009-29.25,60
		c-14.731,10.193-27.57-0.593-42,3.75c-10.745,3.234-15.693,16.384-24,22.5c-16.723,12.312-54.017,11.673-65.25,29.25
		c-11.171,17.48,8.252,27.534,15,38.25c6.547,10.396,15.162,29.744,15.75,44.25c1.138,28.102-33.688,23.852-33.75,53.25
		c-1.25-0.25-2.5-0.5-3.75-0.75c-6.698-20.685,15.893-27.266,11.25-52.5c-5.809-31.568-43.469-46.106-36-82.5
		c8.635-42.077,67.3-27.989,96-49.5c13.724-10.286,19.307-37.648,36.296-48.178"/>
	<path style="fill-rule:evenodd;clip-rule:evenodd;fill:#D19346;" d="M536.25,71.25c1.5,0.25,3,0.5,4.5,0.75
		c7.934,4.444,9.262,15.3,16.5,20.25c7.482,5.116,25.277,2.373,34.5,4.5c0.25,1,0.5,2,0.75,3c-1.75,0-3.5,0-5.25,0
		C580,99.5,572.749,99.25,565.5,99c-13.682-2.984-15.135-11.945-22.5-21C540.174,74.526,536.253,75.922,536.25,71.25z"/>
	<path style="fill-rule:evenodd;clip-rule:evenodd;fill:#D19346;" d="M640.5,123.75c-3.689,2.73-9.758,9.094-4.5,14.25
		c14.876,7.529,16.63,10.367,24,25.5c0.75-0.5,1.5-1,2.25-1.5C670.25,144.022,663.048,124.839,640.5,123.75z"/>
	<path style="fill-rule:evenodd;clip-rule:evenodd;fill:#D19346;" d="M406.5,509.25c-0.182,4.482-1.126,6.341-3,9
		c-0.5-0.25-1-0.5-1.5-0.75c-1.198-14.126-5.259-27.25-10.5-37.5c16.822-23.175,24.343-48.785,35.25-79.5
		c-0.25-0.25-0.5-0.5-0.75-0.75c-9.793,8.039-47.203,39.131-60,37.5c0-1.25,0-2.5,0-3.75c15.707-7.178,27.37-47.118,31.5-67.5
		c1.357-6.698,3.576-24.493,0.75-28.5c-7.995,5.359-15.108,12.843-24.75,16.5c-19.445,7.375-37.954,10.584-50.25,24.75
		c-0.5-0.25-1-0.5-1.5-0.75c0-1.75,0-3.5,0-5.25c4.95-12.801,10.237-23.191,18.75-32.25c10.009-10.65,25.543-16.884,30-33
		c-14.277-0.241-22.918,5.486-30.75,6.75c0-0.25,0-0.5,0-0.75c1.488-6.326,6.433-7.004,9.75-11.25
		c8.614-11.027,16.856-24.659,17.25-43.5c-0.25,0-0.5,0-0.75,0c-7.812,6.981-58.543,48.25-63,47.25c0-0.25,0-0.5,0-0.75
		c3.275-16.939,20.021-58.711,29.25-71.25c6.892-9.363,18.125-16.592,21.75-29.25c-0.25,0-0.5,0-0.75,0
		c-23.7,11.591-39.508,24.457-72,30c-38.542,6.575-76.87-11.857-111,3.75c-19.515,8.924-27.447,26.26-42,39.75
		c-22.652,20.998-51.161,33.218-63,65.25c-8.658,23.425-6.992,52.537-16.5,72.75c-6.473,13.762-21.223,22.068-30,33.75
		c-6.081,8.093-13.542,97.869-8.25,109.5c19.891,0.31,76.505,3.994,84.75-3.75c-6.417-27.397-11.428-38.855-41.25-31.5
		c-10.892-15.41,6.342-45.286,15-52.5c6.116-5.096,35.965-6.393,45-9.75c25.857-9.607,51.589-34.398,60-61.5
		c3.085-9.94,2.688-22.967,6-33.75c28.225-9.607,62.432,6.802,76.5,21.75c6.889,7.32,11.078,17.512,19.5,23.25
		c4.8,3.271,34.026,16.26,45,11.25c2.505-1.144,2.297-2.705,7.5-3c9.808,12.01,27.805,29.491,22.5,53.25
		c-2.25,7.999-4.5,16.001-6.75,24c8.125,15.515,14.125,43.644,23.25,58.5c13.312,0.477,84.869,0.139,89.25-3
		c-1.5-6-3-18.75-4.5-24.75c0.25,0,0.5,0,0.75,0c0.5,1,1,2,1.5,3c0.25,0,0.5,0,0.75,0c-1.633-10.08-9.275-15.164-14.25-18
		C431.023,507.667,420.575,508.103,406.5,509.25z"/>
	<path style="fill-rule:evenodd;clip-rule:evenodd;fill:#D19346;" d="M532.5,375c3.28,0.218,3.482,0.438,5.25,1.5
		c3,10.499,6,21.001,9,31.5c4.184,19.356,1.441,40.911,1.5,61.5c12.323,9.812,17.521,24.326,28.5,35.25
		c26.75-11.653,51.261,10.039,58.5,27.75c2.203,5.39,2.308,22.172,4.5,27c-28.497,0.75-57.003,1.5-85.5,2.25
		c-9.499-8.499-28.751-26.001-38.25-34.5c-8.1-5.914-10.783-3.696-18-7.5c4.778-32.933-20.265-55.147-30.75-76.5
		c7.87-10.25,19.106-14.539,29.25-22.5C512.885,407.891,520.752,392.83,532.5,375z"/>
	<path style="fill-rule:evenodd;clip-rule:evenodd;fill:#D19346;" d="M540,472.5c1.891-26.984,8.523-66.579-5.25-87.75
		c-0.25,0-0.5,0-0.75,0c-9.017,27.082-57.54,46.092-60.75,60c16.193,20.412,21.199,42.1,30.75,70.5
		c27.854,1.482,31.937,33.557,49.5,40.5c12.749-0.25,25.501-0.5,38.25-0.75c10.065-1.205,33.269,5.674,39-2.25
		c8.149-17.582-25.923-56.511-50.762-42.796c-4.144,3.281-4.185,3.666-5.488,5.296c-0.25,0-0.5,0-0.75,0
		C565.421,502.834,550.417,477.813,540,472.5z"/>
	<path style="fill-rule:evenodd;clip-rule:evenodd;fill:#D19346;" d="M198,388.5c26.458,1.869,50.458,11.76,60,30.75
		c-5.257,31.359-27.438,37.986-45,56.25c-0.514,17.073,4.826,32.419,14.25,39.75c22.359-7.569,35.489-4.131,45,15
		c2.013,4.05,5.473,27.034,1.5,31.5c-14.249-0.25-28.501-0.5-42.75-0.75c-13.694,0.598-30.089,2.245-46.5,1.5
		c-5.788-15.973-16.141-33.568-26.25-45.75c-10.019-12.072-24.651-32.093-27.75-48c25.353-10.427,47.625-25.688,58.5-50.25
		C192,408.501,195,398.499,198,388.5z"/>
	<path style="fill-rule:evenodd;clip-rule:evenodd;fill:none;" d="M201,393.75c-6.629,21.22-13.915,39.449-27.75,53.25
		c-6.048,6.033-34.096,20.605-36,26.25c14.058,28.149,38.796,56.009,51.75,86.25c26.997-1,54.003-2,81-3
		c-0.249-16.013-9.749-47.642-30.75-41.25c-4.965,1.511-5.757,5.97-11.25,7.5c-11.597-13.582-22.718-31.189-15.75-54.75
		c20.838-9.679,58.588-40.801,26.25-62.25C228.782,399.304,217.437,393.696,201,393.75z"/>
	<path style="fill-rule:evenodd;clip-rule:evenodd;fill:#D19346;" d="M455.25,531.75c0.944,2.267-0.014,0.897,1.5,2.25
		C456.25,533.25,455.75,532.5,455.25,531.75z"/>
	<path style="fill-rule:evenodd;clip-rule:evenodd;fill:#D19346;" d="M496.5,11.25c-9.999,1.5-20.001,3-30,4.5
		c-14.777,4.004-28.132,11.449-45.75,13.5c0.25,0.5,0.5,1,0.75,1.5c14.391,3.873,39.172,14.715,56.25,7.5
		c1.423,1.029,1.228,0.73,2.25,2.25c0.25,0.75,0.5,1.5,0.75,2.25c-22.249,12.443-47.538,2.929-72.75,9.75
		c-20.743,5.612-41.048,28.586-52.5,44.25c0,0.25,0,0.5,0,0.75c29.348,2.378,36.239,2.807,54.75-10.5
		c2.551,1.009,1.552,0.455,3,2.25c-14.275,22.35-60.014,28.474-84.75,42c-19.568,10.7-30.957,32.204-43.5,50.25
		c-3.626,5.217-11.132,7.956-13.5,14.25c13.097,4.409,32.721,16.599,53.25,12c11.915-2.669,26.544-9.103,37.5-11.25
		c0.5,0.25,1,0.5,1.5,0.75c0,0.25,0,0.5,0,0.75c-2.153,12.285-23.569,29.294-30.75,39c-11.523,15.574-14.55,38.62-22.5,57.75
		c22.461-5.865,48.36-29.681,58.5-48.75c7.055-13.268,11.551-33.417,29.25-35.25c-2.995,8.478-15.106,14.083-19.5,22.5
		c-3.75,14.749-7.5,29.501-11.25,44.25c-4.179,10.478-13.205,18.61-16.5,28.5c0.25,0,0.5,0,0.75,0c7.749-1.25,15.501-2.5,23.25-3.75
		c0.92-5.536,5.253-22.544,8.25-25.5c0.75,0.5,1.5,1,2.25,1.5c0,0.25,0,0.5,0,0.75c-4.765,46.702-46.918,52.278-57.75,90
		c27.227-13.957,59.791-19.368,75-45.75c1.25,0.25,2.5,0.5,3.75,0.75c0,0.25,0,0.5,0,0.75c-2.807,11.039-2.62,25.952-5.25,39.75
		c-4.687,24.585-13.37,45.991-24.75,63.75c27.522-6.298,49.209-32.974,61.5-53.25c1.5,0,3,0,4.5,0c0,0.5,0,1,0,1.5
		c4.479,15.082-5.426,52.594-9,65.25c0.25,0,0.5,0,0.75,0c16.512-9.158,70.534-68.108,65.25-95.25
		c-1.797-9.234-9.61-13.637-11.25-21.75c0.25-0.5,0.5-1,0.75-1.5c1,0,2,0,3,0c8.343,11.129,18.255,28.151,14.25,51
		c-2.25,8.499-4.5,17.001-6.75,25.5c0.5-0.5,1-1,1.5-1.5c18.009-6.77,42.346-53.818,35.25-84
		c-4.975-21.162-22.588-30.585-39.75-66.75c0.25-0.5,0.5-1,0.75-1.5c1,0.25,2,0.5,3,0.75c16.704,24.011,55.999,82.901,68.25,93
		c-0.297-22.234,4.414-59.522-3-81.75c-5.25-9.999-10.5-20.001-15.75-30c-2.63-3.666-6.617-3.255-8.25-8.25c0.25-0.5,0.5-1,0.75-1.5
		c23.808,0.453,41.357,11.208,45.75,30.75c1,0,2,0,3,0c11.718-10.98,27.235-22.499,28.5-43.5c-17.146,7.34-41.903-5.721-39-24
		c23.796-16.968,22.655-15.279,43.5,4.5c1,0,2,0,3,0c8.742-10.492,23.06-14.448,26.25-30.75c-5.723-9.691-9.699-10.365-22.5-13.5
		c-0.55-12.226,0.398-17.314,7.5-21.75c-0.5-0.75-1-1.5-1.5-2.25c-16.343-6.458-30.172-21.383-44.25-30.75
		c-19.595-13.039-43.287-16.271-67.5-19.5c0.25-1,0.5-2,0.75-3c11.467-0.355,25.188,0.655,35.25,4.5
		c7.099,2.713,16.366,10.109,23.25,9.75c0-0.25,0-0.5,0-0.75C558.302,42.935,560.523,10.536,496.5,11.25z"/>
</g>
</svg>
